<svg width="177" height="71" viewBox="0 0 177 71" fill="none" xmlns="http://www.w3.org/2000/svg">
<path d="M57.2115 13.0037L57.6495 45.1661C57.708 49.3272 57.2991 53.026 56.423 56.2625C55.5468 59.499 53.9698 62.1864 51.6918 64.3248C49.4723 66.521 46.3182 68.1681 42.2296 69.2662C38.141 70.4221 32.8842 71 26.4592 71C25.2326 71 23.6264 70.9422 21.6405 70.8266C19.713 70.7688 17.6103 70.6243 15.3323 70.3932C13.1128 70.2198 10.9225 69.9597 8.76133 69.6129C6.6002 69.324 4.73112 68.9483 3.15408 68.486L5.08157 44.7326C8.52769 45.8885 11.5065 46.6109 14.0181 46.8999C16.5881 47.1889 18.9829 47.3333 21.2024 47.3333C24.0645 47.3333 26.6344 46.9866 28.9124 46.293C31.2487 45.5417 32.6798 44.3569 33.2054 42.7387C32.6798 42.9699 32.0665 43.2011 31.3656 43.4322C30.6647 43.6634 29.6425 43.8657 28.2991 44.0391C27.0141 44.2125 25.2326 44.2991 22.9547 44.2991C15.3031 44.2991 9.54985 42.7098 5.69486 39.5311C1.89829 36.3525 0 31.7867 0 25.8339V19.8523C0 13.6105 1.46022 8.75579 4.38066 5.28815C7.30111 1.76271 12.3827 0 19.6254 0C23.7724 0 27.0141 0.751323 29.3505 2.25397C31.6868 3.69882 32.9718 6.09727 33.2054 9.44933H33.994C33.994 8.12006 34.0232 6.7908 34.0816 5.46154C34.1984 4.07448 34.3152 2.71632 34.432 1.38706H58C57.7664 3.35205 57.5619 5.31705 57.3867 7.28205C57.2699 9.18925 57.2115 11.0965 57.2115 13.0037ZM30.0514 29.5617V19.4188C30.0514 19.1876 29.9345 18.7542 29.7009 18.1184C29.5257 17.4249 28.854 17.0781 27.6858 17.0781C26.5176 17.0781 25.8167 17.4249 25.5831 18.1184C25.4079 18.7542 25.3202 19.1876 25.3202 19.4188V29.5617C25.3202 29.735 25.4079 30.1685 25.5831 30.862C25.8167 31.5556 26.5176 31.9023 27.6858 31.9023C28.854 31.9023 29.5257 31.5556 29.7009 30.862C29.9345 30.1685 30.0514 29.735 30.0514 29.5617Z" fill="#14EB00"/>
<path d="M117.211 13.0037L117.65 45.1661C117.708 49.3272 117.299 53.026 116.423 56.2625C115.547 59.499 113.97 62.1864 111.692 64.3248C109.472 66.521 106.318 68.1681 102.23 69.2662C98.141 70.4221 92.8842 71 86.4592 71C85.2326 71 83.6264 70.9422 81.6405 70.8266C79.713 70.7688 77.6103 70.6243 75.3323 70.3932C73.1128 70.2198 70.9225 69.9597 68.7613 69.6129C66.6002 69.324 64.7311 68.9483 63.1541 68.486L65.0816 44.7326C68.5277 45.8885 71.5065 46.6109 74.0181 46.8999C76.5881 47.1889 78.9829 47.3333 81.2024 47.3333C84.0644 47.3333 86.6344 46.9866 88.9124 46.293C91.2487 45.5417 92.6798 44.3569 93.2054 42.7387C92.6798 42.9699 92.0665 43.2011 91.3656 43.4322C90.6646 43.6634 89.6425 43.8657 88.2991 44.0391C87.0141 44.2125 85.2326 44.2991 82.9547 44.2991C75.3031 44.2991 69.5498 42.7098 65.6949 39.5311C61.8983 36.3525 60 31.7867 60 25.8339V19.8523C60 13.6105 61.4602 8.75579 64.3807 5.28815C67.3011 1.76271 72.3827 0 79.6254 0C83.7724 0 87.0141 0.751323 89.3504 2.25397C91.6868 3.69882 92.9718 6.09727 93.2054 9.44933H93.994C93.994 8.12006 94.0232 6.7908 94.0816 5.46154C94.1984 4.07448 94.3152 2.71632 94.432 1.38706H118C117.766 3.35205 117.562 5.31705 117.387 7.28205C117.27 9.18925 117.211 11.0965 117.211 13.0037ZM90.0514 29.5617V19.4188C90.0514 19.1876 89.9345 18.7542 89.7009 18.1184C89.5257 17.4249 88.854 17.0781 87.6858 17.0781C86.5176 17.0781 85.8167 17.4249 85.5831 18.1184C85.4079 18.7542 85.3202 19.1876 85.3202 19.4188V29.5617C85.3202 29.735 85.4079 30.1685 85.5831 30.862C85.8167 31.5556 86.5176 31.9023 87.6858 31.9023C88.854 31.9023 89.5257 31.5556 89.7009 30.862C89.9345 30.1685 90.0514 29.735 90.0514 29.5617Z" fill="#C871FD"/>
<path d="M176.225 13.0037L176.656 45.1661C176.713 49.3272 176.311 53.026 175.45 56.2625C174.589 59.499 173.039 62.1864 170.801 64.3248C168.619 66.521 165.52 68.1681 161.502 69.2662C157.483 70.4221 152.317 71 146.003 71C144.798 71 143.219 70.9422 141.267 70.8266C139.373 70.7688 137.307 70.6243 135.068 70.3932C132.887 70.2198 130.734 69.9597 128.61 69.6129C126.486 69.324 124.65 68.9483 123.1 68.486L124.994 44.7326C128.381 45.8885 131.308 46.6109 133.776 46.8999C136.302 47.1889 138.656 47.3333 140.837 47.3333C143.65 47.3333 146.175 46.9866 148.414 46.293C150.71 45.5417 152.116 44.3569 152.633 42.7387C152.116 42.9699 151.514 43.2011 150.825 43.4322C150.136 43.6634 149.131 43.8657 147.811 44.0391C146.548 44.2125 144.798 44.2991 142.559 44.2991C135.039 44.2991 129.385 42.7098 125.597 39.5311C121.866 36.3525 120 31.7867 120 25.8339V19.8523C120 13.6105 121.435 8.75579 124.305 5.28815C127.175 1.76271 132.169 0 139.287 0C143.363 0 146.548 0.751323 148.844 2.25397C151.14 3.69882 152.403 6.09727 152.633 9.44933H153.408C153.408 8.12006 153.437 6.7908 153.494 5.46154C153.609 4.07448 153.724 2.71632 153.838 1.38706H177C176.77 3.35205 176.569 5.31705 176.397 7.28205C176.282 9.18925 176.225 11.0965 176.225 13.0037ZM149.533 29.5617V19.4188C149.533 19.1876 149.418 18.7542 149.189 18.1184C149.017 17.4249 148.356 17.0781 147.208 17.0781C146.06 17.0781 145.372 17.4249 145.142 18.1184C144.97 18.7542 144.884 19.1876 144.884 19.4188V29.5617C144.884 29.735 144.97 30.1685 145.142 30.862C145.372 31.5556 146.06 31.9023 147.208 31.9023C148.356 31.9023 149.017 31.5556 149.189 30.862C149.418 30.1685 149.533 29.735 149.533 29.5617Z" fill="#5260FE"/>
</svg>
